<?xml version="1.0" standalone="no"?>
<!DOCTYPE svg PUBLIC "-//W3C//DTD SVG 20010904//EN"
 "http://www.w3.org/TR/2001/REC-SVG-20010904/DTD/svg10.dtd">
<svg version="1.0" xmlns="http://www.w3.org/2000/svg"
 width="557.000000pt" height="557.000000pt" viewBox="0 0 557.000000 557.000000"
 preserveAspectRatio="xMidYMid meet">
<metadata>
Created by potrace 1.14, written by Peter Selinger 2001-2017
</metadata>
<g transform="translate(0.000000,557.000000) scale(0.100000,-0.100000)"
fill="#000000" stroke="none">
<path d="M2737 5563 c-10 -2 -46 -21 -80 -40 -106 -62 -276 -144 -327 -159
-27 -8 -65 -29 -83 -47 -19 -18 -55 -38 -81 -44 -25 -7 -67 -26 -94 -43 -27
-16 -64 -33 -83 -36 -86 -17 -129 -73 -134 -174 -4 -74 14 -110 79 -162 30
-24 55 -46 55 -49 1 -3 -20 -27 -45 -55 -53 -56 -100 -149 -107 -210 -5 -46
25 -134 58 -175 23 -29 101 -69 134 -69 22 0 23 -3 17 -37 -12 -73 -16 -86
-31 -103 -21 -23 -29 -62 -27 -133 1 -32 -3 -55 -8 -52 -13 8 -23 -14 -12 -28
18 -22 18 -51 0 -69 -26 -26 -61 -22 -88 9 l-23 27 -11 -32 c-8 -24 -14 -29
-26 -22 -16 10 -33 3 -25 -10 12 -19 -16 -19 -35 0 -11 11 -27 20 -36 20 -18
0 -14 -8 30 -57 11 -13 16 -26 13 -30 -4 -3 -2 -12 3 -19 13 -15 9 -35 -10
-51 -8 -7 -12 -13 -7 -14 4 -1 10 -2 15 -3 4 -1 17 -7 30 -14 18 -11 20 -16
12 -32 -6 -11 -8 -20 -4 -20 4 0 1 -8 -7 -17 -16 -20 -56 -116 -61 -148 -2
-11 -18 -27 -36 -35 -25 -11 -32 -21 -31 -40 2 -44 -1 -51 -18 -48 -14 2 -18
-4 -18 -30 -1 -18 -5 -36 -11 -40 -14 -9 -27 -45 -14 -37 6 3 10 -1 10 -10 0
-16 48 -40 185 -96 78 -31 91 -43 73 -66 -7 -10 -22 -19 -33 -19 -11 -1 -31
-4 -45 -7 -14 -3 -28 -6 -32 -6 -5 -1 -8 -8 -8 -16 0 -8 -13 -29 -29 -47 l-29
-33 20 -53 c16 -42 23 -51 33 -42 25 20 52 -9 68 -73 13 -50 13 -58 1 -53 -15
6 -54 -26 -54 -44 0 -6 -6 -10 -12 -9 -33 4 -58 -2 -58 -15 0 -15 72 -66 94
-66 8 0 18 -4 21 -10 3 -5 15 -10 27 -10 19 0 20 -1 4 -25 -9 -13 -16 -29 -16
-36 0 -6 -9 -24 -21 -40 -17 -24 -20 -43 -19 -112 0 -45 -4 -104 -10 -132 -10
-45 -11 -63 -8 -102 1 -7 7 -13 15 -13 25 0 63 -43 63 -71 0 -16 9 -32 23 -42
l22 -16 -23 -16 c-12 -9 -21 -24 -20 -33 2 -11 -5 -18 -19 -20 -26 -4 -30 -26
-9 -47 16 -16 103 -38 116 -30 5 3 17 -4 27 -15 14 -14 28 -18 50 -16 34 5 44
-7 33 -39 -7 -19 -7 -19 -19 2 -6 12 -17 20 -24 17 -20 -7 -39 -44 -29 -57 5
-7 15 -39 22 -72 8 -33 24 -73 38 -89 13 -16 30 -46 38 -67 9 -20 46 -66 85
-103 70 -66 78 -81 58 -117 -10 -19 -9 -19 10 -9 12 6 21 7 21 2 0 -5 11 -10
25 -11 14 -1 31 -2 39 -3 9 -1 19 -24 26 -67 7 -36 21 -97 31 -136 10 -38 21
-106 24 -150 4 -44 13 -105 20 -135 8 -30 17 -70 20 -89 3 -19 8 -38 11 -42 2
-4 6 -27 9 -51 2 -24 8 -58 14 -75 5 -18 8 -33 6 -33 -2 0 2 -19 10 -41 8 -23
18 -66 21 -97 3 -30 8 -65 10 -76 6 -25 9 -44 18 -111 4 -27 12 -71 18 -97
l10 -48 334 0 c290 0 334 2 335 15 2 24 4 29 12 43 5 6 6 12 4 12 -2 0 2 26
10 58 7 31 16 66 18 77 18 81 29 123 36 145 5 14 11 39 14 55 6 31 61 265 71
300 3 11 7 34 10 50 3 17 12 55 20 85 18 69 23 87 30 125 3 17 14 64 24 105
47 180 69 277 69 295 -1 25 4 47 14 62 5 7 6 13 3 13 -3 0 1 18 9 40 8 22 13
40 11 40 -2 0 2 21 10 46 7 25 13 49 12 52 -4 15 27 89 50 120 14 18 39 40 56
49 17 9 33 19 36 24 3 4 18 10 34 13 41 7 78 51 70 84 -4 18 -3 23 4 14 7 -11
10 -11 15 3 4 9 1 18 -8 21 -23 9 -18 38 10 64 23 22 24 25 9 41 -9 10 -22 15
-30 12 -8 -3 -18 5 -25 21 -7 14 -15 26 -18 26 -4 0 -15 16 -25 35 -13 23 -36
43 -65 58 -86 42 -83 39 -77 76 3 22 0 38 -10 48 -9 9 -12 23 -8 32 3 9 7 25
8 35 0 12 17 28 42 40 41 20 124 94 124 109 0 4 -7 7 -15 7 -20 0 -19 10 5 40
11 14 20 31 20 38 0 6 5 12 11 12 8 0 9 12 5 38 -4 20 -9 54 -10 74 -2 20 -7
41 -10 46 -3 5 0 27 7 48 14 41 15 103 3 123 -5 7 4 15 23 22 32 11 40 24 20
31 -6 2 -13 16 -14 31 -4 34 -52 94 -82 103 -27 7 -27 10 -10 45 36 67 51 159
28 159 -5 0 -9 34 -9 75 0 41 -4 80 -9 87 -4 7 -8 18 -9 23 -1 6 -13 35 -28
66 -28 62 -73 111 -108 119 -22 6 -22 6 7 24 43 25 78 80 80 126 2 32 -2 40
-23 49 -29 14 -30 13 -34 -19 -5 -33 -25 -67 -34 -57 -4 4 -2 18 4 31 9 19 8
27 -4 37 -10 8 -14 29 -13 71 2 61 -10 84 -38 73 -7 -2 -13 2 -13 10 0 8 -7
18 -15 23 -9 4 -18 22 -20 38 -4 28 -25 101 -40 136 -5 13 2 19 34 29 23 7 41
16 41 20 0 4 10 11 22 15 27 8 41 22 68 65 41 67 59 116 65 170 6 55 -13 180
-32 214 -7 11 -7 30 -2 47 8 29 -14 128 -29 128 -12 0 -92 79 -147 145 -89
107 -143 153 -196 166 -27 7 -49 17 -49 21 0 26 -217 259 -249 266 -27 7 -245
11 -264 5z"/>
</g>
</svg>
